<svg viewBox="0 0 72 72" xmlns="http://www.w3.org/2000/svg">
  <g fill="none" stroke="#000" stroke-miterlimit="10" stroke-width="2">
    <g stroke-linecap="round">
      <path stroke="black" stroke-width="4" d="m57.2506 44.8137c1.1272-2.7145 1.7494-5.6915 1.7494-8.8137 0-12.7031-10.2978-23-23-23-12.7031 0-23 10.2969-23 23 0 12.7022 10.2969 23 23 23 3.3707 0 6.5721-.7251 9.4566-2.0279" stroke-linejoin="round"/>
      <path stroke="black" stroke-width="4" d="m31.6941 33.4036c-1.0598-2.3854-3.8527-3.46-6.238-2.4002-1.0697.4752-1.9249 1.3305-2.4002 2.4002"/>
      <path stroke="black" stroke-width="4" d="m48.9441 33.4036c-1.0598-2.3854-3.8527-3.46-6.238-2.4002-1.0697.4752-1.9249 1.3305-2.4002 2.4002"/>
    </g>
    <path stroke="black" stroke-width="4" d="m50.5707 44.471s6.3864 4.2101 6.3864 7.6241c0 2.4671-1.5752 4.5107-4.2717 4.5107-3.7214 0-7.6844-6.2448-7.6844-6.2448"/>
    <path d="m20.1657 41.3575c2.2328 6.6016 8.4783 11.3541 15.8343 11.3541 7.3561 0 13.6024-4.7533 15.8349-11.3559" stroke="black" stroke-width="4" stroke-linecap="round" stroke-linejoin="round"/>
  </g>
</svg>